<?xml version="1.0" standalone="no"?>
<!DOCTYPE svg PUBLIC "-//W3C//DTD SVG 20010904//EN"
 "http://www.w3.org/TR/2001/REC-SVG-20010904/DTD/svg10.dtd">
<svg version="1.0" xmlns="http://www.w3.org/2000/svg"
 width="120.000000pt" height="120.000000pt" viewBox="0 0 120.000000 120.000000"
 preserveAspectRatio="xMidYMid meet">
<metadata>
Created by potrace 1.14, written by Peter Selinger 2001-2017
</metadata>
<g transform="translate(0.000000,120.000000) scale(0.100000,-0.100000)"
fill="#000000" stroke="none">
<path d="M943 1183 c-7 -2 -13 -13 -13 -23 0 -23 18 -36 53 -38 33 -2 76 -23
99 -49 17 -19 52 -103 42 -103 -2 0 0 -9 6 -20 15 -29 48 -26 56 5 28 111
-142 269 -243 228z"/>
<path d="M429 1127 c-23 -17 -39 -52 -39 -83 l0 -27 -25 27 c-24 26 -67 34
-91 18 -33 -21 -55 -107 -34 -128 7 -7 -2 -10 -25 -10 -39 0 -59 -19 -74 -72
-9 -31 1 -76 20 -92 3 -3 8 -12 12 -22 4 -11 1 -15 -11 -13 -43 6 -80 -34 -73
-79 2 -11 31 -59 64 -107 34 -49 107 -154 162 -235 55 -80 119 -164 142 -185
64 -59 175 -103 258 -102 219 3 392 170 397 384 2 72 -7 106 -57 224 -23 55
-59 152 -80 215 -21 63 -44 123 -53 133 -20 23 -67 22 -92 -3 -25 -25 -25 -22
5 -170 29 -144 29 -136 11 -143 -8 -3 -23 9 -38 31 -90 137 -295 429 -307 439
-9 7 -25 12 -36 12 -11 0 -27 -5 -36 -12z"/>
<path d="M775 1114 c-25 -25 -3 -51 52 -59 120 -18 210 -108 228 -227 8 -54
21 -69 51 -58 18 7 21 15 18 48 -13 169 -125 286 -293 306 -28 3 -45 0 -56
-10z"/>
<path d="M86 425 c-10 -11 -14 -28 -11 -55 18 -171 124 -277 295 -295 27 -3
44 1 55 11 25 25 3 50 -51 58 -112 15 -215 118 -231 231 -7 53 -32 75 -57 50z"/>
<path d="M13 255 c-3 -9 -3 -34 1 -56 17 -108 96 -180 200 -183 49 -1 51 0 54
27 2 19 -1 27 -12 28 -9 1 -19 2 -23 3 -5 1 -24 5 -44 9 -61 12 -110 76 -114
147 -1 38 -49 57 -62 25z"/>
</g>
</svg>
